<?xml version="1.0"?>
<svg xmlns="http://www.w3.org/2000/svg" id="Layer_1" data-name="Layer 1" viewBox="0 0 512 512" width="512" height="512"><path d="M241.855,452.811a45.835,45.835,0,0,0,59.263,4.911l71.717-51.228a16,16,0,0,0,2.018-24.327l-64.71-64.709a16.009,16.009,0,0,0-23.6,1.07l-23.329,27.989a14,14,0,0,1-20.66.93l-114.7-114.7a14,14,0,0,1,.939-20.649l28-23.335a16.011,16.011,0,0,0,1.053-23.607l-64.7-64.7a16,16,0,0,0-24.334,2.014L17.588,174.191a45.857,45.857,0,0,0,4.9,59.262Zm53.9-126.593a4.008,4.008,0,0,1,5.9-.275l64.7,64.705a4,4,0,0,1-.5,6.079L348.249,409.3l-66.4-66.4ZM27.353,181.167l31.576-44.213,7.089,7.088a6,6,0,0,0,8.484-8.485l-8.5-8.5,12.575-17.609a3.95,3.95,0,0,1,2.923-1.66c.1-.009.212-.014.336-.014a3.929,3.929,0,0,1,2.825,1.172l64.7,64.7a4.012,4.012,0,0,1-.258,5.908l-16.691,13.912L93.486,154.541A6,6,0,1,0,85,163.026l38.15,38.151-2.045,1.705a26,26,0,0,0-1.739,38.351l114.7,114.7a26.005,26.005,0,0,0,38.362-1.731l1.7-2.044,64.217,64.217-44.208,31.583a33.875,33.875,0,0,1-43.8-3.631L30.975,224.969A33.892,33.892,0,0,1,27.353,181.167Z"/><path d="M124.187,96.2a40.19,40.19,0,0,1,40.013,40,6,6,0,0,0,6,5.986h.015a6,6,0,0,0,5.985-6.014A52.214,52.214,0,0,0,124.214,84.2a6,6,0,1,0-.027,12Z"/><path d="M132.71,57.71c38.652,0,70.347,31.714,70.65,70.7a6,6,0,0,0,6,5.953h.048a6,6,0,0,0,5.953-6.047c-.355-45.547-37.432-82.6-82.65-82.6a6,6,0,0,0,0,12Z"/><path d="M217.357,388.312a6,6,0,0,0,8.485-8.485L85.132,239.117a6,6,0,0,0-8.485,8.486Z"/><path d="M61.765,232.73a6,6,0,1,0,8.49-8.48l-8.41-8.42a6,6,0,0,0-8.491,8.48Z"/><path d="M476.98,91.43H274.59a26.029,26.029,0,0,0-26,26V228a26.029,26.029,0,0,0,26,26h15.34a3.213,3.213,0,0,1,2.756,2.356c5.768,31.95,26.776,41.719,31.422,43.509a6.125,6.125,0,0,0,2.853.709,6.017,6.017,0,0,0,.934-.073,6.309,6.309,0,0,0,5.163-4.9,46.95,46.95,0,0,0,1.077-7.64c.469-5.022,1.112-11.9,3.28-18.036C341.265,259.06,348.654,254,360.67,254H476.98a26.029,26.029,0,0,0,26-26V117.43A26.029,26.029,0,0,0,476.98,91.43Zm14,136.57a14.015,14.015,0,0,1-14,14H360.67c-17.069,0-29.022,8.27-34.567,23.921-2.422,6.853-3.241,13.866-3.766,19.328a37.38,37.38,0,0,1-3.878-3.2c-7.151-6.748-11.85-16.111-13.967-27.837A15.212,15.212,0,0,0,289.93,242H274.59a14.015,14.015,0,0,1-14-14V117.43a14.015,14.015,0,0,1,14-14H476.98a14.015,14.015,0,0,1,14,14Z"/><path d="M460.65,165.65H290.92a6,6,0,0,0,0,12H460.65a6,6,0,0,0,0-12Z"/><path d="M460.65,197.24H290.92a6,6,0,0,0,0,12H460.65a6,6,0,0,0,0-12Z"/><path d="M290.92,144.83H401.61a6,6,0,0,0,0-12H290.92a6,6,0,0,0,0,12Z"/></svg>
