<svg id="Layer_1" height="512" viewBox="0 0 512 512" width="512" xmlns="http://www.w3.org/2000/svg" data-name="Layer 1"><path d="m357.14 14.37h-202.28a36.041 36.041 0 0 0 -36 36v411.26a36.041 36.041 0 0 0 36 36h202.28a36.041 36.041 0 0 0 36-36v-411.26a36.041 36.041 0 0 0 -36-36zm24 447.26a24.027 24.027 0 0 1 -24 24h-202.28a24.027 24.027 0 0 1 -24-24v-45.25h250.28zm0-390.72h-171.47a6 6 0 0 0 0 12h171.47v321.47h-250.28v-321.47h45.37a6 6 0 0 0 0-12h-45.37v-20.54a24.027 24.027 0 0 1 24-24h202.28a24.027 24.027 0 0 1 24 24z"/><path d="m217 33.37h-60.14a19.022 19.022 0 0 0 -19 19 6 6 0 1 0 12 0 7.008 7.008 0 0 1 7-7h60.14a6 6 0 0 0 0-12z"/><path d="m243.14 33.37h-8.81a6 6 0 1 0 0 12h8.81a6 6 0 0 0 0-12z"/><path d="m144 142v114a26.03 26.03 0 0 0 26 26h172a26.03 26.03 0 0 0 26-26v-114a26.03 26.03 0 0 0 -26-26h-172a26.03 26.03 0 0 0 -26 26zm212 114a14.015 14.015 0 0 1 -14 14h-172a14.015 14.015 0 0 1 -14-14v-6.56h137.553a19.184 19.184 0 0 0 36.454 0h25.993zm-51.42-12.56a7.2 7.2 0 1 1 7.2 7.2 7.208 7.208 0 0 1 -7.2-7.2zm51.42-101.44v95.44h-25.993a19.184 19.184 0 0 0 -36.454 0h-137.553v-95.44a14.015 14.015 0 0 1 14-14h172a14.015 14.015 0 0 1 14 14z"/><path d="m242.654 199.714a6 6 0 0 0 6.2-.38l21.121-14.609a6 6 0 0 0 0-9.871l-21.12-14.6a6 6 0 0 0 -9.412 4.936v29.21a6 6 0 0 0 3.211 5.314zm8.786-23.082 4.571 3.16-4.571 3.162z"/><path d="m251.6 220.99a41.2 41.2 0 1 0 -41.2-41.2 41.246 41.246 0 0 0 41.2 41.2zm0-70.4a29.2 29.2 0 1 1 -29.2 29.2 29.233 29.233 0 0 1 29.2-29.2z"/><path d="m166 316h90a6 6 0 0 0 0-12h-90a6 6 0 0 0 0 12z"/><path d="m346 334h-180a6 6 0 0 0 0 12h180a6 6 0 0 0 0-12z"/><path d="m346 364h-180a6 6 0 0 0 0 12h180a6 6 0 0 0 0-12z"/><path d="m256 469.89a22.385 22.385 0 1 0 -22.39-22.39 22.415 22.415 0 0 0 22.39 22.39zm0-32.77a10.385 10.385 0 1 1 -10.39 10.38 10.4 10.4 0 0 1 10.39-10.38z"/></svg>